<mxfile host="app.diagrams.net" modified="2021-04-09T08:46:23.793Z" agent="5.0 (Windows NT 10.0; Win64; x64) AppleWebKit/537.36 (KHTML, like Gecko) Chrome/89.0.4389.114 Safari/537.36" etag="9gT9R8mlBifmez-EeEIP" version="14.5.8" type="github">
  <diagram id="9_1jYsx3lrLRg1FMJCD2" name="Page-1">
    <mxGraphModel dx="1038" dy="548" grid="1" gridSize="10" guides="1" tooltips="1" connect="1" arrows="1" fold="1" page="1" pageScale="1" pageWidth="827" pageHeight="1169" math="0" shadow="0">
      <root>
        <mxCell id="0" />
        <mxCell id="1" parent="0" />
        <mxCell id="8SyhGbuYQznFCXG21KUP-5" value="" style="shape=umlLifeline;participant=umlActor;perimeter=lifelinePerimeter;whiteSpace=wrap;html=1;container=1;collapsible=0;recursiveResize=0;verticalAlign=top;spacingTop=36;outlineConnect=0;" parent="1" vertex="1">
          <mxGeometry x="370" y="620" width="20" height="340" as="geometry" />
        </mxCell>
        <mxCell id="8SyhGbuYQznFCXG21KUP-6" value="" style="shape=umlLifeline;participant=umlActor;perimeter=lifelinePerimeter;whiteSpace=wrap;html=1;container=1;collapsible=0;recursiveResize=0;verticalAlign=top;spacingTop=36;outlineConnect=0;" parent="1" vertex="1">
          <mxGeometry x="580" y="620" width="20" height="340" as="geometry" />
        </mxCell>
        <object label="" id="8SyhGbuYQznFCXG21KUP-8">
          <mxCell style="shape=umlLifeline;participant=umlActor;perimeter=lifelinePerimeter;whiteSpace=wrap;html=1;container=1;collapsible=0;recursiveResize=0;verticalAlign=top;spacingTop=36;outlineConnect=0;" parent="1" vertex="1">
            <mxGeometry x="205" y="620" width="20" height="340" as="geometry" />
          </mxCell>
        </object>
        <mxCell id="8SyhGbuYQznFCXG21KUP-9" value="RSSI REQUEST" style="html=1;verticalAlign=bottom;startArrow=oval;startFill=1;endArrow=block;startSize=8;" parent="1" source="8SyhGbuYQznFCXG21KUP-5" target="8SyhGbuYQznFCXG21KUP-6" edge="1">
          <mxGeometry width="60" relative="1" as="geometry">
            <mxPoint x="640" y="840" as="sourcePoint" />
            <mxPoint x="700" y="840" as="targetPoint" />
            <Array as="points">
              <mxPoint x="480" y="730" />
            </Array>
          </mxGeometry>
        </mxCell>
        <mxCell id="8SyhGbuYQznFCXG21KUP-11" value="mobile" style="text;html=1;resizable=0;autosize=1;align=center;verticalAlign=middle;points=[];fillColor=none;strokeColor=none;rounded=0;" parent="1" vertex="1">
          <mxGeometry x="190" y="590" width="50" height="20" as="geometry" />
        </mxCell>
        <mxCell id="8SyhGbuYQznFCXG21KUP-12" value="master" style="text;html=1;resizable=0;autosize=1;align=center;verticalAlign=middle;points=[];fillColor=none;strokeColor=none;rounded=0;" parent="1" vertex="1">
          <mxGeometry x="355" y="590" width="50" height="20" as="geometry" />
        </mxCell>
        <mxCell id="8SyhGbuYQznFCXG21KUP-13" value="slave" style="text;html=1;resizable=0;autosize=1;align=center;verticalAlign=middle;points=[];fillColor=none;strokeColor=none;rounded=0;" parent="1" vertex="1">
          <mxGeometry x="570" y="590" width="40" height="20" as="geometry" />
        </mxCell>
        <mxCell id="8SyhGbuYQznFCXG21KUP-28" value="" style="edgeStyle=orthogonalEdgeStyle;rounded=0;orthogonalLoop=1;jettySize=auto;html=1;" parent="1" source="8SyhGbuYQznFCXG21KUP-14" target="8SyhGbuYQznFCXG21KUP-27" edge="1">
          <mxGeometry relative="1" as="geometry" />
        </mxCell>
        <mxCell id="8SyhGbuYQznFCXG21KUP-14" value="response handler" style="rounded=0;whiteSpace=wrap;html=1;" parent="1" vertex="1">
          <mxGeometry x="350" y="820" width="70" height="30" as="geometry" />
        </mxCell>
        <mxCell id="8SyhGbuYQznFCXG21KUP-15" value="RSSI RESPONSE" style="html=1;verticalAlign=bottom;startArrow=oval;startFill=1;endArrow=block;startSize=8;" parent="1" source="8SyhGbuYQznFCXG21KUP-6" target="8SyhGbuYQznFCXG21KUP-5" edge="1">
          <mxGeometry width="60" relative="1" as="geometry">
            <mxPoint x="589.5" y="780" as="sourcePoint" />
            <mxPoint x="379.5" y="780" as="targetPoint" />
            <Array as="points">
              <mxPoint x="590" y="790" />
              <mxPoint x="535" y="790" />
            </Array>
          </mxGeometry>
        </mxCell>
        <mxCell id="8SyhGbuYQznFCXG21KUP-31" value="" style="edgeStyle=orthogonalEdgeStyle;rounded=0;orthogonalLoop=1;jettySize=auto;html=1;" parent="1" source="8SyhGbuYQznFCXG21KUP-16" target="8SyhGbuYQznFCXG21KUP-30" edge="1">
          <mxGeometry relative="1" as="geometry" />
        </mxCell>
        <mxCell id="8SyhGbuYQznFCXG21KUP-16" value="massage block" style="rounded=0;whiteSpace=wrap;html=1;" parent="1" vertex="1">
          <mxGeometry x="530" y="740" width="120" height="30" as="geometry" />
        </mxCell>
        <mxCell id="8SyhGbuYQznFCXG21KUP-18" value="" style="endArrow=classic;startArrow=classic;html=1;" parent="1" source="8SyhGbuYQznFCXG21KUP-5" target="8SyhGbuYQznFCXG21KUP-6" edge="1">
          <mxGeometry width="50" height="50" relative="1" as="geometry">
            <mxPoint x="390" y="870" as="sourcePoint" />
            <mxPoint x="440" y="820" as="targetPoint" />
            <Array as="points">
              <mxPoint x="460" y="900" />
              <mxPoint x="530" y="900" />
            </Array>
          </mxGeometry>
        </mxCell>
        <mxCell id="8SyhGbuYQznFCXG21KUP-19" value="roleswtich" style="text;html=1;resizable=0;autosize=1;align=center;verticalAlign=middle;points=[];fillColor=none;strokeColor=none;rounded=0;" parent="1" vertex="1">
          <mxGeometry x="445" y="880" width="70" height="20" as="geometry" />
        </mxCell>
        <mxCell id="8SyhGbuYQznFCXG21KUP-23" value="" style="endArrow=classic;html=1;" parent="1" source="8SyhGbuYQznFCXG21KUP-8" target="8SyhGbuYQznFCXG21KUP-5" edge="1">
          <mxGeometry width="50" height="50" relative="1" as="geometry">
            <mxPoint x="220" y="750" as="sourcePoint" />
            <mxPoint x="270" y="700" as="targetPoint" />
          </mxGeometry>
        </mxCell>
        <mxCell id="8SyhGbuYQznFCXG21KUP-24" value="" style="endArrow=classic;html=1;" parent="1" source="8SyhGbuYQznFCXG21KUP-8" target="8SyhGbuYQznFCXG21KUP-6" edge="1">
          <mxGeometry width="50" height="50" relative="1" as="geometry">
            <mxPoint x="390" y="870" as="sourcePoint" />
            <mxPoint x="440" y="820" as="targetPoint" />
            <Array as="points">
              <mxPoint x="420" y="940" />
            </Array>
          </mxGeometry>
        </mxCell>
        <mxCell id="8SyhGbuYQznFCXG21KUP-25" value="connect" style="text;html=1;resizable=0;autosize=1;align=center;verticalAlign=middle;points=[];fillColor=none;strokeColor=none;rounded=0;" parent="1" vertex="1">
          <mxGeometry x="270" y="790" width="60" height="20" as="geometry" />
        </mxCell>
        <mxCell id="8SyhGbuYQznFCXG21KUP-26" value="connect" style="text;html=1;resizable=0;autosize=1;align=center;verticalAlign=middle;points=[];fillColor=none;strokeColor=none;rounded=0;" parent="1" vertex="1">
          <mxGeometry x="280" y="920" width="60" height="20" as="geometry" />
        </mxCell>
        <mxCell id="8SyhGbuYQznFCXG21KUP-27" value="电量判断&lt;br&gt;rssi判断" style="whiteSpace=wrap;html=1;rounded=0;" parent="1" vertex="1">
          <mxGeometry x="620" y="810" width="120" height="60" as="geometry" />
        </mxCell>
        <mxCell id="8SyhGbuYQznFCXG21KUP-30" value="TWS_RSSI寄存器地址&lt;br&gt;MOBILE_RSSI寄存器地址&lt;br&gt;电压&lt;br&gt;RSSI" style="whiteSpace=wrap;html=1;rounded=0;" parent="1" vertex="1">
          <mxGeometry x="690" y="725" width="160" height="60" as="geometry" />
        </mxCell>
        <mxCell id="8SyhGbuYQznFCXG21KUP-32" value="读取rssi，&lt;br&gt;读取process" style="rounded=0;whiteSpace=wrap;html=1;" parent="1" vertex="1">
          <mxGeometry x="335" y="670" width="90" height="35" as="geometry" />
        </mxCell>
        <mxCell id="8SyhGbuYQznFCXG21KUP-54" value="读取rssi，&lt;br&gt;读取process" style="rounded=0;whiteSpace=wrap;html=1;" parent="1" vertex="1">
          <mxGeometry x="545" y="670" width="90" height="35" as="geometry" />
        </mxCell>
      </root>
    </mxGraphModel>
  </diagram>
</mxfile>
